<svg width="60" height="60" viewBox="0 0 60 60" fill="none" xmlns="http://www.w3.org/2000/svg">
<path d="M39.8636 23.9137C40.0819 23.7102 40.258 23.4656 40.3818 23.194C40.5056 22.9224 40.5747 22.6291 40.5852 22.3308C40.5956 22.0324 40.5472 21.735 40.4427 21.4554C40.3382 21.1758 40.1797 20.9195 39.9761 20.7012C39.7726 20.4829 39.528 20.3068 39.2564 20.183C38.9848 20.0592 38.6915 19.9901 38.3932 19.9796C38.0949 19.9692 37.7974 20.0176 37.5178 20.1221C37.2382 20.2266 36.9819 20.3852 36.7636 20.5887L30.1136 26.7887L23.9136 20.1364C23.4988 19.7115 22.9341 19.4659 22.3404 19.452C21.7467 19.4382 21.1712 19.6573 20.737 20.0624C20.3028 20.4675 20.0444 21.0264 20.0171 21.6196C19.9898 22.2128 20.1957 22.7931 20.5909 23.2364L26.7909 29.8864L20.1386 36.0864C19.9126 36.2879 19.7291 36.5325 19.5989 36.8059C19.4687 37.0793 19.3945 37.376 19.3806 37.6784C19.3667 37.9809 19.4133 38.2831 19.5178 38.5673C19.6223 38.8515 19.7825 39.112 19.9891 39.3334C20.1957 39.5548 20.4444 39.7327 20.7207 39.8566C20.9969 39.9805 21.2952 40.048 21.5979 40.0551C21.9006 40.0621 22.2017 40.0086 22.4835 39.8977C22.7652 39.7868 23.022 39.6207 23.2386 39.4092L29.8886 33.2114L36.0886 39.8614C36.2888 40.0916 36.5333 40.2792 36.8075 40.4129C37.0817 40.5466 37.3801 40.6237 37.6847 40.6397C37.9894 40.6556 38.2941 40.6101 38.5808 40.5058C38.8675 40.4015 39.1302 40.2405 39.3534 40.0324C39.5765 39.8244 39.7555 39.5736 39.8796 39.2949C40.0038 39.0162 40.0706 38.7154 40.076 38.4104C40.0814 38.1053 40.0253 37.8023 39.9111 37.5194C39.7969 37.2365 39.627 36.9795 39.4113 36.7637L33.2136 30.1137L39.8636 23.9137V23.9137Z" fill="white"/>
<path fill-rule="evenodd" clip-rule="evenodd" d="M5 30C5 16.1932 16.1932 5 30 5C43.8068 5 55 16.1932 55 30C55 43.8068 43.8068 55 30 55C16.1932 55 5 43.8068 5 30ZM30 50.4545C27.3139 50.4545 24.654 49.9255 22.1724 48.8975C19.6907 47.8696 17.4358 46.3629 15.5365 44.4635C13.6371 42.5642 12.1304 40.3093 11.1025 37.8276C10.0745 35.346 9.54545 32.6861 9.54545 30C9.54545 27.3139 10.0745 24.654 11.1025 22.1724C12.1304 19.6907 13.6371 17.4358 15.5365 15.5365C17.4358 13.6371 19.6907 12.1304 22.1724 11.1025C24.654 10.0745 27.3139 9.54545 30 9.54545C35.4249 9.54545 40.6276 11.7005 44.4635 15.5365C48.2995 19.3724 50.4545 24.5751 50.4545 30C50.4545 35.4249 48.2995 40.6276 44.4635 44.4635C40.6276 48.2995 35.4249 50.4545 30 50.4545Z" fill="white"/>
</svg>
