<svg width="40" height="40" viewBox="0 0 40 40" fill="none" xmlns="http://www.w3.org/2000/svg">
<path d="M23.5235 21.0167L21.3402 23.1V13.6667C21.3402 13.2246 21.1646 12.8007 20.852 12.4882C20.5394 12.1756 20.1155 12 19.6735 12C19.2315 12 18.8075 12.1756 18.495 12.4882C18.1824 12.8007 18.0068 13.2246 18.0068 13.6667V22.9833L15.8568 20.8167C15.543 20.5028 15.1173 20.3265 14.6735 20.3265C14.2297 20.3265 13.804 20.5028 13.4902 20.8167C13.1763 21.1305 13 21.5562 13 22C13 22.4438 13.1763 22.8695 13.4902 23.1833L18.4902 28.1833C18.6487 28.3351 18.8356 28.454 19.0402 28.5333C19.2397 28.6215 19.4554 28.6671 19.6735 28.6671C19.8916 28.6671 20.1073 28.6215 20.3068 28.5333C20.4048 28.4939 20.4951 28.4374 20.5735 28.3667C20.6664 28.327 20.7512 28.2705 20.8235 28.2L25.8235 23.4333C26.144 23.1283 26.3301 22.7085 26.3411 22.2662C26.352 21.824 26.1868 21.3955 25.8818 21.075C25.5768 20.7545 25.157 20.5683 24.7147 20.5574C24.2725 20.5465 23.844 20.7117 23.5235 21.0167V21.0167Z" fill="white"/>
</svg>
