<svg width="60" height="60" viewBox="0 0 60 60" fill="none" xmlns="http://www.w3.org/2000/svg">
<path d="M35.775 31.025L32.5 34.15V20C32.5 19.337 32.2366 18.7011 31.7677 18.2322C31.2989 17.7634 30.663 17.5 30 17.5C29.3369 17.5 28.701 17.7634 28.2322 18.2322C27.7634 18.7011 27.5 19.337 27.5 20V33.975L24.275 30.725C23.8042 30.2542 23.1657 29.9898 22.5 29.9898C21.8342 29.9898 21.1957 30.2542 20.725 30.725C20.2542 31.1958 19.9897 31.8342 19.9897 32.5C19.9897 33.1658 20.2542 33.8042 20.725 34.275L28.225 41.775C28.4627 42.0026 28.7431 42.181 29.05 42.3C29.3492 42.4323 29.6728 42.5006 30 42.5006C30.3272 42.5006 30.6507 42.4323 30.95 42.3C31.0969 42.2408 31.2323 42.1562 31.35 42.05C31.4894 41.9906 31.6165 41.9058 31.725 41.8L39.225 34.65C39.7057 34.1925 39.985 33.5628 40.0014 32.8994C40.0178 32.236 39.77 31.5932 39.3125 31.1125C38.855 30.6318 38.2253 30.3525 37.5618 30.3361C36.8984 30.3197 36.2557 30.5675 35.775 31.025V31.025Z" fill="white"/>
<path d="M30 5C25.0555 5 20.222 6.46622 16.1108 9.21326C11.9995 11.9603 8.79521 15.8648 6.90302 20.4329C5.01083 25.0011 4.51575 30.0277 5.48038 34.8773C6.44501 39.7268 8.82603 44.1814 12.3223 47.6777C15.8187 51.174 20.2732 53.555 25.1228 54.5196C29.9723 55.4843 34.9989 54.9892 39.5671 53.097C44.1353 51.2048 48.0397 48.0005 50.7867 43.8893C53.5338 39.778 55 34.9445 55 30C55 26.717 54.3534 23.4661 53.097 20.4329C51.8406 17.3998 49.9991 14.6438 47.6777 12.3223C45.3562 10.0009 42.6002 8.15938 39.5671 6.90301C36.534 5.64664 33.2831 5 30 5V5ZM30 50C26.0444 50 22.1776 48.827 18.8886 46.6294C15.5996 44.4318 13.0362 41.3082 11.5224 37.6537C10.0087 33.9991 9.6126 29.9778 10.3843 26.0982C11.156 22.2186 13.0608 18.6549 15.8579 15.8579C18.6549 13.0608 22.2186 11.156 26.0982 10.3843C29.9778 9.61259 33.9992 10.0087 37.6537 11.5224C41.3082 13.0362 44.4318 15.5996 46.6294 18.8886C48.827 22.1776 50 26.0444 50 30C50 35.3043 47.8929 40.3914 44.1421 44.1421C40.3914 47.8929 35.3043 50 30 50V50Z" fill="white"/>
</svg>
