<svg width="60" height="60" viewBox="0 0 60 60" fill="none" xmlns="http://www.w3.org/2000/svg">
<path d="M40.85 23.305C41.0902 23.0811 41.2839 22.8121 41.4201 22.5133C41.5563 22.2146 41.6323 21.8919 41.6438 21.5638C41.6553 21.2356 41.602 20.9084 41.487 20.6009C41.3721 20.2933 41.1977 20.0114 40.9738 19.7713C40.7499 19.5311 40.4809 19.3374 40.1821 19.2012C39.8833 19.065 39.5607 18.989 39.2325 18.9775C38.9044 18.966 38.5772 19.0193 38.2696 19.1342C37.9621 19.2492 37.6802 19.4236 37.44 19.6475L30.125 26.4675L23.305 19.15C22.8487 18.6826 22.2275 18.4124 21.5745 18.3972C20.9215 18.3819 20.2884 18.6229 19.8108 19.0685C19.3332 19.5141 19.0489 20.129 19.0189 20.7815C18.9888 21.434 19.2154 22.0724 19.65 22.56L26.47 29.875L19.1525 36.695C18.9039 36.9166 18.702 37.1857 18.5589 37.4864C18.4157 37.7872 18.334 38.1135 18.3187 38.4462C18.3034 38.7789 18.3547 39.1114 18.4696 39.424C18.5846 39.7366 18.7609 40.0231 18.9881 40.2666C19.2153 40.5102 19.4889 40.7059 19.7928 40.8422C20.0967 40.9785 20.4248 41.0528 20.7578 41.0605C21.0907 41.0683 21.4219 41.0094 21.7319 40.8874C22.0418 40.7654 22.3242 40.5827 22.5625 40.35L29.8775 33.5325L36.6975 40.8475C36.9177 41.1007 37.1867 41.307 37.4883 41.4541C37.7899 41.6012 38.1181 41.686 38.4532 41.7036C38.7884 41.7211 39.1236 41.671 39.4389 41.5563C39.7543 41.4415 40.0433 41.2644 40.2888 41.0356C40.5342 40.8068 40.7311 40.5309 40.8677 40.2243C41.0042 39.9178 41.0777 39.5869 41.0836 39.2513C41.0896 38.9158 41.0279 38.5825 40.9023 38.2713C40.7767 37.9601 40.5897 37.6774 40.3525 37.44L33.535 30.125L40.85 23.305Z" fill="white"/>
<path fill-rule="evenodd" clip-rule="evenodd" d="M2.5 30C2.5 14.8125 14.8125 2.5 30 2.5C45.1875 2.5 57.5 14.8125 57.5 30C57.5 45.1875 45.1875 57.5 30 57.5C14.8125 57.5 2.5 45.1875 2.5 30ZM30 52.5C27.0453 52.5 24.1194 51.918 21.3896 50.7873C18.6598 49.6566 16.1794 47.9992 14.0901 45.9099C12.0008 43.8206 10.3434 41.3402 9.21271 38.6104C8.08198 35.8806 7.5 32.9547 7.5 30C7.5 27.0453 8.08198 24.1194 9.21271 21.3896C10.3434 18.6598 12.0008 16.1794 14.0901 14.0901C16.1794 12.0008 18.6598 10.3434 21.3896 9.21271C24.1194 8.08198 27.0453 7.5 30 7.5C35.9674 7.5 41.6903 9.87053 45.9099 14.0901C50.1295 18.3097 52.5 24.0326 52.5 30C52.5 35.9674 50.1295 41.6903 45.9099 45.9099C41.6903 50.1295 35.9674 52.5 30 52.5Z" fill="white"/>
</svg>
