<svg width="83" height="19" viewBox="0 0 83 19" fill="none" xmlns="http://www.w3.org/2000/svg">
<path d="M0.517045 18V0.545454H12.0739V3.58807H4.20739V7.74716H11.3068V10.7898H4.20739V18H0.517045ZM30.5959 9.27273C30.5959 11.1761 30.2351 12.7955 29.5135 14.1307C28.7976 15.4659 27.8203 16.4858 26.5817 17.1903C25.3487 17.8892 23.9624 18.2386 22.4226 18.2386C20.8714 18.2386 19.4794 17.8864 18.2464 17.1818C17.0135 16.4773 16.0391 15.4574 15.3232 14.1222C14.6072 12.7869 14.2493 11.1705 14.2493 9.27273C14.2493 7.36932 14.6072 5.75 15.3232 4.41477C16.0391 3.07955 17.0135 2.0625 18.2464 1.36364C19.4794 0.659091 20.8714 0.306818 22.4226 0.306818C23.9624 0.306818 25.3487 0.659091 26.5817 1.36364C27.8203 2.0625 28.7976 3.07955 29.5135 4.41477C30.2351 5.75 30.5959 7.36932 30.5959 9.27273ZM26.8544 9.27273C26.8544 8.03977 26.6697 7 26.3004 6.15341C25.9368 5.30682 25.4226 4.66477 24.7578 4.22727C24.093 3.78977 23.3146 3.57102 22.4226 3.57102C21.5305 3.57102 20.7521 3.78977 20.0874 4.22727C19.4226 4.66477 18.9055 5.30682 18.5362 6.15341C18.1726 7 17.9908 8.03977 17.9908 9.27273C17.9908 10.5057 18.1726 11.5455 18.5362 12.392C18.9055 13.2386 19.4226 13.8807 20.0874 14.3182C20.7521 14.7557 21.5305 14.9744 22.4226 14.9744C23.3146 14.9744 24.093 14.7557 24.7578 14.3182C25.4226 13.8807 25.9368 13.2386 26.3004 12.392C26.6697 11.5455 26.8544 10.5057 26.8544 9.27273ZM48.7301 6.65625H44.9972C44.929 6.1733 44.7898 5.74432 44.5795 5.36932C44.3693 4.98864 44.0994 4.66477 43.7699 4.39773C43.4403 4.13068 43.0597 3.92614 42.6278 3.78409C42.2017 3.64205 41.7386 3.57102 41.2386 3.57102C40.3352 3.57102 39.5483 3.79545 38.8778 4.24432C38.2074 4.6875 37.6875 5.33523 37.3182 6.1875C36.9489 7.03409 36.7642 8.0625 36.7642 9.27273C36.7642 10.517 36.9489 11.5625 37.3182 12.4091C37.6932 13.2557 38.2159 13.8949 38.8864 14.3267C39.5568 14.7585 40.3324 14.9744 41.2131 14.9744C41.7074 14.9744 42.1648 14.9091 42.5852 14.7784C43.0114 14.6477 43.3892 14.4574 43.7188 14.2074C44.0483 13.9517 44.321 13.642 44.5369 13.2784C44.7585 12.9148 44.9119 12.5 44.9972 12.0341L48.7301 12.0511C48.6335 12.8523 48.392 13.625 48.0057 14.3693C47.625 15.108 47.1108 15.7699 46.4631 16.3551C45.821 16.9347 45.054 17.3949 44.1619 17.7358C43.2756 18.071 42.2727 18.2386 41.1534 18.2386C39.5966 18.2386 38.2045 17.8864 36.9773 17.1818C35.7557 16.4773 34.7898 15.4574 34.0795 14.1222C33.375 12.7869 33.0227 11.1705 33.0227 9.27273C33.0227 7.36932 33.3807 5.75 34.0966 4.41477C34.8125 3.07955 35.7841 2.0625 37.0114 1.36364C38.2386 0.659091 39.6193 0.306818 41.1534 0.306818C42.1648 0.306818 43.1023 0.448863 43.9659 0.732954C44.8352 1.01705 45.6051 1.43182 46.2756 1.97727C46.946 2.51704 47.4915 3.17898 47.9119 3.96307C48.3381 4.74716 48.6108 5.64489 48.7301 6.65625ZM62.1577 0.545454H65.848V11.8807C65.848 13.1534 65.544 14.267 64.9361 15.2216C64.3338 16.1761 63.4901 16.9205 62.4048 17.4545C61.3196 17.983 60.0554 18.2472 58.6122 18.2472C57.1634 18.2472 55.8963 17.983 54.8111 17.4545C53.7259 16.9205 52.8821 16.1761 52.2798 15.2216C51.6776 14.267 51.3764 13.1534 51.3764 11.8807V0.545454H55.0668V11.5653C55.0668 12.2301 55.2116 12.821 55.5014 13.3381C55.7969 13.8551 56.2116 14.2614 56.7457 14.5568C57.2798 14.8523 57.902 15 58.6122 15C59.3281 15 59.9503 14.8523 60.4787 14.5568C61.0128 14.2614 61.4247 13.8551 61.7145 13.3381C62.0099 12.821 62.1577 12.2301 62.1577 11.5653V0.545454ZM78.353 5.56534C78.2848 4.87784 77.9922 4.34375 77.4751 3.96307C76.9581 3.58239 76.2564 3.39204 75.37 3.39204C74.7678 3.39204 74.2592 3.47727 73.8445 3.64773C73.4297 3.8125 73.1115 4.04261 72.8899 4.33807C72.674 4.63352 72.5661 4.96875 72.5661 5.34375C72.5547 5.65625 72.62 5.92898 72.7621 6.16193C72.9098 6.39489 73.1115 6.59659 73.3672 6.76705C73.6229 6.93182 73.9183 7.0767 74.2536 7.2017C74.5888 7.32102 74.9467 7.4233 75.3274 7.50852L76.8956 7.88352C77.657 8.05398 78.3558 8.28125 78.9922 8.56534C79.6286 8.84943 80.1797 9.19886 80.6456 9.61364C81.1115 10.0284 81.4723 10.517 81.728 11.0795C81.9893 11.642 82.1229 12.2869 82.1286 13.0142C82.1229 14.0824 81.8501 15.0085 81.3104 15.7926C80.7763 16.571 80.0036 17.1761 78.9922 17.608C77.9865 18.0341 76.7734 18.2472 75.353 18.2472C73.9439 18.2472 72.7166 18.0312 71.6712 17.5994C70.6314 17.1676 69.8189 16.5284 69.2337 15.6818C68.6541 14.8295 68.3501 13.7756 68.3217 12.5199H71.8928C71.9325 13.1051 72.1001 13.5937 72.3956 13.9858C72.6967 14.3722 73.0973 14.6648 73.5973 14.8636C74.103 15.0568 74.674 15.1534 75.3104 15.1534C75.9354 15.1534 76.478 15.0625 76.9382 14.8807C77.4041 14.6989 77.7649 14.446 78.0206 14.1222C78.2763 13.7983 78.4041 13.4261 78.4041 13.0057C78.4041 12.6136 78.2876 12.2841 78.0547 12.017C77.8274 11.75 77.4922 11.5227 77.049 11.3352C76.6115 11.1477 76.0746 10.9773 75.4382 10.8239L73.5376 10.3466C72.0661 9.98864 70.9041 9.42898 70.0518 8.66761C69.1996 7.90625 68.7763 6.88068 68.782 5.59091C68.7763 4.53409 69.0575 3.6108 69.6257 2.82102C70.1996 2.03125 70.9865 1.41477 71.9865 0.971591C72.9865 0.528409 74.1229 0.306818 75.3956 0.306818C76.6911 0.306818 77.8217 0.528409 78.7876 0.971591C79.7592 1.41477 80.5149 2.03125 81.0547 2.82102C81.5945 3.6108 81.8729 4.52557 81.8899 5.56534H78.353Z" fill="white"/>
</svg>
