<svg width="85" height="45" viewBox="0 0 85 45" fill="none" xmlns="http://www.w3.org/2000/svg">
<path d="M23.5235 24.0167L21.3402 26.1V16.6667C21.3402 16.2246 21.1646 15.8007 20.852 15.4882C20.5394 15.1756 20.1155 15 19.6735 15C19.2315 15 18.8075 15.1756 18.495 15.4882C18.1824 15.8007 18.0068 16.2246 18.0068 16.6667V25.9833L15.8568 23.8167C15.543 23.5028 15.1173 23.3265 14.6735 23.3265C14.2297 23.3265 13.804 23.5028 13.4902 23.8167C13.1763 24.1305 13 24.5562 13 25C13 25.4438 13.1763 25.8695 13.4902 26.1833L18.4902 31.1833C18.6487 31.3351 18.8356 31.454 19.0402 31.5333C19.2397 31.6215 19.4554 31.6671 19.6735 31.6671C19.8916 31.6671 20.1073 31.6215 20.3068 31.5333C20.4048 31.4939 20.4951 31.4374 20.5735 31.3667C20.6664 31.327 20.7512 31.2705 20.8235 31.2L25.8235 26.4333C26.144 26.1283 26.3301 25.7085 26.3411 25.2662C26.352 24.824 26.1868 24.3955 25.8818 24.075C25.5768 23.7545 25.157 23.5683 24.7147 23.5574C24.2725 23.5465 23.844 23.7117 23.5235 24.0167V24.0167Z" fill="white"/>
<g clip-path="url(#clip0_907_12392)">
<path d="M85 22.4775C85 10.0687 74.92 0 62.5 0C50.08 0 40 10.0687 40 22.4775C40 29.3119 43.105 35.4712 47.965 39.6056C48.01 39.6506 48.055 39.6506 48.055 39.6956C48.46 40.0106 48.865 40.3256 49.315 40.6406C49.54 40.7756 49.72 40.9528 49.945 41.1328C53.6633 43.6538 58.0526 45.001 62.545 45C67.0374 45.001 71.4267 43.6538 75.145 41.1328C75.37 40.9978 75.55 40.8206 75.775 40.6828C76.18 40.3706 76.63 40.0556 77.035 39.7406C77.08 39.6956 77.125 39.6956 77.125 39.6506C81.895 35.4684 85 29.3119 85 22.4775V22.4775ZM62.5 42.1678C58.27 42.1678 54.4 40.8178 51.205 38.5706C51.25 38.2106 51.34 37.8534 51.43 37.4934C51.6981 36.5178 52.0914 35.581 52.6 34.7063C53.095 33.8513 53.68 33.0863 54.4 32.4113C55.075 31.7363 55.885 31.1091 56.695 30.6141C57.55 30.1191 58.45 29.7591 59.44 29.4891C60.4377 29.2201 61.4667 29.0849 62.5 29.0869C65.5675 29.0652 68.5222 30.2418 70.735 32.3663C71.77 33.4013 72.58 34.6163 73.165 36.0084C73.48 36.8184 73.705 37.6734 73.84 38.5706C70.5189 40.9054 66.5597 42.1614 62.5 42.1678ZM55.615 21.3553C55.2185 20.4475 55.0191 19.4659 55.03 18.4753C55.03 17.4881 55.21 16.4981 55.615 15.5981C56.02 14.6981 56.56 13.8909 57.235 13.2159C57.91 12.5409 58.72 12.0038 59.62 11.5988C60.52 11.1938 61.51 11.0137 62.5 11.0137C63.535 11.0137 64.48 11.1938 65.38 11.5988C66.28 12.0038 67.09 12.5437 67.765 13.2159C68.44 13.8909 68.98 14.7009 69.385 15.5981C69.79 16.4981 69.97 17.4881 69.97 18.4753C69.97 19.5103 69.79 20.4553 69.385 21.3525C68.9941 22.2392 68.4452 23.0473 67.765 23.7375C67.0746 24.4167 66.2665 24.9647 65.38 25.3547C63.5205 26.1189 61.4345 26.1189 59.575 25.3547C58.6885 24.9647 57.8804 24.4167 57.19 23.7375C56.5089 23.0574 55.973 22.246 55.615 21.3525V21.3553ZM76.495 36.2784C76.495 36.1884 76.45 36.1434 76.45 36.0534C76.0074 34.6455 75.3551 33.3124 74.515 32.0991C73.6741 30.8767 72.6407 29.7987 71.455 28.9069C70.5494 28.2256 69.5679 27.6518 68.53 27.1969C69.0022 26.8854 69.4397 26.5243 69.835 26.1197C70.5059 25.4574 71.0951 24.7171 71.59 23.9147C72.5866 22.2773 73.1013 20.392 73.075 18.4753C73.0889 17.0564 72.8133 15.6497 72.265 14.3409C71.7237 13.0799 70.9445 11.935 69.97 10.9688C68.997 10.0126 67.8518 9.24916 66.595 8.71875C65.2841 8.17142 63.8755 7.89678 62.455 7.91156C61.0343 7.89767 59.6257 8.17327 58.315 8.72156C57.0473 9.25084 55.8994 10.0305 54.94 11.0137C53.9839 11.9857 53.2204 13.1299 52.69 14.3859C52.1417 15.6947 51.8661 17.1014 51.88 18.5203C51.88 19.5103 52.015 20.4553 52.285 21.3525C52.555 22.2975 52.915 23.1525 53.41 23.9597C53.86 24.7697 54.49 25.4897 55.165 26.1647C55.57 26.5697 56.02 26.9269 56.515 27.2419C55.4739 27.7089 54.492 28.2981 53.59 28.9969C52.42 29.8969 51.385 30.9741 50.53 32.1441C49.6814 33.3524 49.0283 34.6869 48.595 36.0984C48.55 36.1884 48.55 36.2784 48.55 36.3234C44.995 32.7262 42.79 27.8719 42.79 22.4775C42.79 11.6438 51.655 2.78719 62.5 2.78719C73.345 2.78719 82.21 11.6438 82.21 22.4775C82.2041 27.6524 80.1493 32.6144 76.495 36.2784V36.2784Z" fill="white"/>
</g>
<defs>
<clipPath id="clip0_907_12392">
<rect width="45" height="45" fill="white" transform="translate(40)"/>
</clipPath>
</defs>
</svg>
