<svg width="22" height="26" viewBox="0 0 22 26" fill="none" xmlns="http://www.w3.org/2000/svg">
<path d="M16.775 14.025L13.5 17.15V3C13.5 2.33696 13.2366 1.70107 12.7677 1.23223C12.2989 0.763393 11.663 0.5 11 0.5C10.3369 0.5 9.70105 0.763393 9.23221 1.23223C8.76337 1.70107 8.49998 2.33696 8.49998 3V16.975L5.27498 13.725C4.80422 13.2542 4.16573 12.9898 3.49998 12.9898C2.83422 12.9898 2.19573 13.2542 1.72498 13.725C1.25422 14.1958 0.989746 14.8342 0.989746 15.5C0.989746 16.1658 1.25422 16.8042 1.72498 17.275L9.22498 24.775C9.46273 25.0026 9.7431 25.181 10.05 25.3C10.3492 25.4323 10.6728 25.5006 11 25.5006C11.3272 25.5006 11.6507 25.4323 11.95 25.3C12.0969 25.2408 12.2323 25.1562 12.35 25.05C12.4894 24.9906 12.6165 24.9058 12.725 24.8L20.225 17.65C20.7057 17.1925 20.985 16.5628 21.0014 15.8994C21.0178 15.236 20.77 14.5932 20.3125 14.1125C19.855 13.6318 19.2253 13.3525 18.5618 13.3361C17.8984 13.3197 17.2557 13.5675 16.775 14.025Z" fill="white"/>
</svg>
