<svg width="60" height="60" viewBox="0 0 60 60" fill="none" xmlns="http://www.w3.org/2000/svg">
<g clip-path="url(#clip0_1035_4535)">
<path d="M20 19.0718C20.2788 18.895 20.597 18.7899 20.9263 18.766C21.2556 18.7421 21.5856 18.8 21.8871 18.9347C22.1885 19.0694 22.4519 19.2766 22.6538 19.5378C22.8556 19.799 22.9897 20.1062 23.044 20.4318L23.604 23.7758C23.6679 24.1564 23.6204 24.5474 23.467 24.9015C23.3137 25.2557 23.0612 25.5579 22.74 25.7718L20.736 27.1078C20.2466 25.4493 19.9988 23.729 20 21.9998V19.0718ZM38 39.9998C36.2708 40.0011 34.5505 39.7532 32.892 39.2638L34.228 37.2638C34.4414 36.9419 34.7434 36.6886 35.0976 36.5345C35.4518 36.3805 35.843 36.3323 36.224 36.3958L39.568 36.9558C39.8937 37.0101 40.2008 37.1442 40.462 37.3461C40.7233 37.5479 40.9304 37.8113 41.0651 38.1127C41.1998 38.4142 41.2577 38.7442 41.2338 39.0735C41.2099 39.4028 41.1048 39.721 40.928 39.9998H38Z" fill="#001245"/>
<path fill-rule="evenodd" clip-rule="evenodd" d="M3.08539e-05 30.0001C0.000329685 23.2955 2.24655 16.7842 6.3802 11.5054C10.5138 6.22669 16.2966 2.48477 22.8056 0.876913C29.3146 -0.730949 36.1746 -0.112075 42.2908 2.63476C48.4069 5.3816 53.4266 10.0981 56.5488 16.0314C59.6709 21.9647 60.7155 28.7729 59.5159 35.3694C58.3162 41.9658 54.9415 47.9703 49.9302 52.4244C44.9189 56.8786 38.56 59.5257 31.8684 59.9432C25.1768 60.3608 18.5381 58.5248 13.012 54.7281L2.89203 59.7881C2.51702 59.9739 2.09316 60.0374 1.68017 59.9696C1.26718 59.9018 0.885861 59.7062 0.589924 59.4103C0.293986 59.1143 0.0983428 58.733 0.0305499 58.32C-0.037243 57.907 0.0262308 57.4832 0.212031 57.1082L5.27203 46.9881C1.83021 41.9923 -0.00868696 36.0668 3.08539e-05 30.0001V30.0001ZM16.92 16.3201L17.744 15.7681C18.5776 15.2129 19.5369 14.8752 20.5344 14.7858C21.5319 14.6963 22.536 14.858 23.455 15.2561C24.374 15.6542 25.1788 16.2759 25.7959 17.0648C26.413 17.8536 26.8228 18.7843 26.988 19.7721L27.548 23.1201C27.7381 24.2607 27.5946 25.4319 27.1348 26.4928C26.6749 27.5537 25.9183 28.4591 24.956 29.1001L22.324 30.8521C23.937 33.7038 26.2943 36.0638 29.144 37.6801L30.904 35.0481C31.5448 34.0865 32.4495 33.3304 33.5097 32.8706C34.5698 32.4108 35.7401 32.2669 36.88 32.4562L40.228 33.0161C41.2158 33.1813 42.1466 33.5912 42.9354 34.2083C43.7242 34.8254 44.346 35.6302 44.7441 36.5492C45.1422 37.4682 45.3039 38.4723 45.2144 39.4698C45.125 40.4673 44.7872 41.4266 44.232 42.2601L43.68 43.0882C43.4989 43.3691 43.2502 43.6001 42.9567 43.7601C42.6632 43.9201 42.3343 44.004 42 44.0042H38C35.1106 44.0042 32.2495 43.435 29.5801 42.3291C26.9106 41.2233 24.4852 39.6024 22.4423 37.5591C20.3993 35.5158 18.7789 33.09 17.6735 30.4204C16.5682 27.7508 15.9995 24.8896 16 22.0001V18.0001C16.0006 17.6655 16.0851 17.3364 16.2458 17.0428C16.4066 16.7493 16.6384 16.5009 16.92 16.3201Z" fill="#001245"/>
</g>
<defs>
<clipPath id="clip0_1035_4535">
<rect width="60" height="60" fill="white"/>
</clipPath>
</defs>
</svg>
